<svg width="500" height="500" viewBox="0 0 500 500" fill="none" xmlns="http://www.w3.org/2000/svg">
<rect width="500" height="500" rx="250" fill="white"/>
<path d="M251.1 94.1094C250.25 94.6594 240.65 100.159 229.9 106.409C219.1 112.609 206.65 119.809 202.25 122.359C193.4 127.459 182.5 133.809 161 146.259L146.75 154.509L146.6 220.059L146.5 285.609H182.25H218V273.859V262.109H194H170V215.209V168.359L183.9 160.409C207.05 147.109 237.2 129.659 246.75 124.059C248.95 122.809 251.2 121.509 251.75 121.209C252.9 120.609 250.4 119.259 278.5 135.509C299.35 147.559 307.3 152.159 325.1 162.409L335.5 168.359V199.209V230.109L337.9 229.109C339.2 228.609 353.8 222.309 370.35 215.159C386.9 207.959 400.7 202.109 401 202.109C401.35 202.109 401.5 214.359 401.5 240.109C401.5 261.009 401.4 278.109 401.3 278.109C401.1 278.109 372.9 267.259 352.75 259.459C339.15 254.209 336.25 253.109 335.9 253.109C335.65 253.109 335.5 267.059 335.5 284.109V315.109H216.3C150.7 315.109 97 314.959 96.9 314.709C96.8 314.509 96.8 290.809 96.9 261.959L97.05 209.609H106.5H116V197.859V186.109H95.5H75V262.609V339.109H217H359V313.359C359 299.209 359.2 287.609 359.4 287.609C359.8 287.609 367.5 290.559 386.25 297.859C390.95 299.659 398.8 302.709 403.75 304.609C408.7 306.509 415.4 309.059 418.65 310.309C421.9 311.559 424.65 312.609 424.75 312.609C424.9 312.609 425 279.559 425 239.159V165.659L420.4 167.709C404.25 174.709 360.15 193.659 359.75 193.759C359.45 193.809 359.15 186.909 359 174.159L358.75 154.409L348 148.209C342.1 144.809 331.5 138.709 324.5 134.609C310.8 126.709 303.45 122.459 290.5 115.009C271.3 103.959 255.65 94.9094 254.2 94.0594C252.75 93.1594 252.65 93.1594 251.1 94.1094Z" fill="black"/>
<path d="M246.5 157.909C244.25 158.909 242.2 160.859 240.85 163.359L239.75 165.359V221.609C239.75 275.509 239.8 277.909 240.7 279.609C243.1 284.109 246.65 286.309 251.55 286.309C256.25 286.309 258.25 284.959 264.3 277.759C267.05 274.509 275 265.009 282 256.609C289.05 248.209 297.45 238.209 300.7 234.359C307.75 226.109 308.75 224.209 308.4 219.859C308 215.259 308.85 216.409 291.5 196.609C289.95 194.809 286.85 191.309 284.7 188.809C255.05 154.709 257.55 157.109 251.45 157.109C249.7 157.159 247.45 157.509 246.5 157.909ZM275.65 214.509C280.35 219.859 280.95 220.809 280.4 221.509C279.7 222.359 267 237.659 263.9 241.359C263.7 241.609 263.5 232.509 263.5 221.209V200.559L266.85 204.459C268.75 206.609 272.7 211.159 275.65 214.509Z" fill="black"/>
<path d="M181.05 360.759C180.05 362.009 159 405.309 159 406.159C159 406.409 165.3 406.609 172.95 406.609H186.9L188.65 402.959C189.6 401.009 194.6 390.709 199.7 380.159C204.8 369.609 209 360.759 209 360.559C209 360.309 202.85 360.109 195.3 360.109C184.5 360.109 181.5 360.259 181.05 360.759Z" fill="black"/>
<path d="M256.9 360.359C256.75 360.509 257.75 362.959 259.15 365.759C260.5 368.559 263.85 375.459 266.6 381.109C269.35 386.759 273.3 394.809 275.3 398.959L278.95 406.609H292.25C301.15 406.609 305.5 406.459 305.5 406.109C305.5 405.609 294.8 383.459 286.75 367.359L283.25 360.359L270.2 360.209C263.05 360.159 257.05 360.209 256.9 360.359Z" fill="black"/>
</svg>
